HIERARCHY
ROOT Hips
{
  OFFSET 263.056 91.6644 -274.608
  CHANNELS 6 Xposition Yposition Zposition Zrotation Xrotation Yrotation
  JOINT LeftUpLeg
  {
    OFFSET 8.64259 1.95398 -2.38835
    CHANNELS 3 Zrotation Xrotation Yrotation
    JOINT LeftLeg
    {
      OFFSET 43.7702 0 0
      CHANNELS 3 Zrotation Xrotation Yrotation
      JOINT LeftFoot
      {
        OFFSET 40.6238 0 0
        CHANNELS 3 Zrotation Xrotation Yrotation
        JOINT LeftToeBase
        {
          OFFSET 12.7242 0 0
          CHANNELS 3 Zrotation Xrotation Yrotation
          End Site
          {
            OFFSET 0 0 0
          }
        }
      }
    }
  }
  JOINT RightUpLeg
  {
    OFFSET -8.2249 1.95398 -2.59336
    CHANNELS 3 Zrotation Xrotation Yrotation
    JOINT RightLeg
    {
      OFFSET 43.5653 0 0
      CHANNELS 3 Zrotation Xrotation Yrotation
      JOINT RightFoot
      {
        OFFSET 40.6238 0 0
        CHANNELS 3 Zrotation Xrotation Yrotation
        JOINT RightToeBase
        {
          OFFSET 12.7242 0 0
          CHANNELS 3 Zrotation Xrotation Yrotation
          End Site
          {
            OFFSET 0 0 0
          }
        }
      }
    }
  }
  JOINT Spine
  {
    OFFSET 0.165834 0.87714 6.61349
    CHANNELS 3 Zrotation Xrotation Yrotation
    JOINT Spine1
    {
      OFFSET 7.38963 1.71661e-005 0
      CHANNELS 3 Zrotation Xrotation Yrotation
      JOINT Spine2
      {
        OFFSET 11.9445 1.14441e-005 0
        CHANNELS 3 Zrotation Xrotation Yrotation
        JOINT Spine3
        {
          OFFSET 14.7254 4.19617e-005 0
          CHANNELS 3 Zrotation Xrotation Yrotation
          JOINT Spine4
          {
            OFFSET 10.9679 0 0
            CHANNELS 3 Zrotation Xrotation Yrotation
            JOINT RightShoulder
            {
              OFFSET 2.46616 -1.6653 3.69651
              CHANNELS 3 Zrotation Xrotation Yrotation
              JOINT RightArm
              {
                OFFSET 13.0012 0 0
                CHANNELS 3 Zrotation Xrotation Yrotation
                JOINT RightForeArm
                {
                  OFFSET 28.7848 1.52588e-005 0
                  CHANNELS 3 Zrotation Xrotation Yrotation
                  JOINT RightHand
                  {
                    OFFSET 26.5688 1.52588e-005 0
                    CHANNELS 3 Zrotation Xrotation Yrotation
                    End Site
                    {
                      OFFSET 0 0 0
                    }
                  }
                }
              }
            }
            JOINT LeftShoulder
            {
              OFFSET 2.38034 -1.29275 -3.7523
              CHANNELS 3 Zrotation Xrotation Yrotation
              JOINT LeftArm
              {
                OFFSET 16.3182 6.10352e-005 0
                CHANNELS 3 Zrotation Xrotation Yrotation
                JOINT LeftForeArm
                {
                  OFFSET 27.0901 0 0
                  CHANNELS 3 Zrotation Xrotation Yrotation
                  JOINT LeftHand
                  {
                    OFFSET 24.5451 1.52588e-005 0
                    CHANNELS 3 Zrotation Xrotation Yrotation
                    End Site
                    {
                      OFFSET 0 0 0
                    }
                  }
                }
              }
            }
            JOINT Neck
            {
              OFFSET 5.0226 -0.0266342 0
              CHANNELS 3 Zrotation Xrotation Yrotation
              JOINT Head
              {
                OFFSET 6.69364 2.86102e-005 0
                CHANNELS 3 Zrotation Xrotation Yrotation
                End Site
                {
                  OFFSET 0 0 0
                }
              }
            }
          }
        }
      }
    }
  }
}
MOTION
Frames:	11
Frame Time:	0.0416667
23.989 89.7678 -56.5359 76.9383 -42.2573 78.9407 -176.279 9.04443 82.4282 -28.7312 10.9339 0.656013 67.1292 24.8427 26.8679 50.4463 22.5658 -4.34433 -177.338 33.8034 89.3145 -74.8356 3.95669 -5.832 56.8861 -0.9232 -0.448147 37.0804 0.61412 8.63883 -0.32576 7.7049 -89.768 11.4657 -0.539748 0.516249 -0.205309 -0.516517 0.539494 -22.7409 -0.669961 0.330162 -2.72827 -0.669959 0.33016 81.2972 -52.4229 -113.072 20.7601 -17.11 21.2349 -14.2034 -3.51781 -72.6368 -25.2422 -1.14602 0.586233 -99.9344 -41.1445 60.5493 -25.8204 6.63064 8.83247 13.3575 -5.50936 -94.0621 30.0753 3.2387 7.05612 15.4304 -1.94543 1.59693 2.04608 -2.32689 -0.216497 
17.6009 89.3211 -60.8977 80.3274 -44.4503 80.0631 -176.034 16.4328 82.1729 -38.572 9.33 0.288257 66.735 23.12 27.1045 51.3271 23.6977 -3.45532 -178.125 21.147 87.5757 -71.77 1.8451 -6.97237 52.7978 0.641982 0.680775 31.622 -0.07132 6.57885 0.232262 8.00128 -89.6853 10.8695 0.608035 0.570222 -0.801423 0.632546 0.542905 -23.3361 0.40857 0.726592 -3.32344 0.408577 0.726604 81.3433 -52.079 -113.129 19.9077 -15.8989 17.2245 -14.6991 -2.86291 -74.321 -25.0219 -1.45099 2.07056 -100.912 -42.3845 59.5669 -29.7964 6.14614 13.334 12.0086 -2.96931 -84.8312 29.6197 2.85241 5.8668 15.06 -3.17705 2.68364 2.17319 -3.83745 -0.862376 
11.7253 90.3771 -65.0283 80.279 -47.5452 80.8961 -175.073 21.8025 83.9616 -40.4167 7.96218 0.0468288 67.9985 20.5494 23.4036 52.4803 25.3369 -1.942 179.874 8.99905 86.7847 -58.7722 -2.48673 -7.28129 49.3855 2.19778 1.97023 31.6689 -0.230515 10.8494 0.770305 7.94173 -89.7873 10.9893 1.63208 0.26756 -0.680657 1.64229 0.195451 -23.2226 1.47619 0.745798 -3.20997 1.4762 0.745798 81.1684 -49.8062 -114.235 20.6759 -16.9018 13.9905 -13.3812 -0.97291 -77.6556 -24.8284 -1.48301 2.14694 -99.2206 -42.4383 62.2252 -34.6805 6.57082 19.0095 10.8751 -0.247768 -76.1143 31.1626 2.97171 5.76905 13.4038 -3.78728 2.67066 3.09497 -4.37163 -0.355003 
5.91688 91.3756 -68.922 77.1951 -50.0343 78.3584 -174.932 27.2217 85.1007 -38.8542 8.79122 -0.351788 66.4616 17.8457 21.2553 50.4308 25.2394 4.73337 177.667 1.6629 84.9288 -45.525 -3.87105 -7.08057 52.518 1.73749 1.51009 33.4518 0.08126 12.2394 1.08262 7.69157 -89.7609 11.4903 2.26578 0.246137 -0.178652 2.2744 0.146111 -22.7277 2.08699 0.915996 -2.71502 2.087 0.915988 82.494 -48.3261 -112.8 19.782 -19.2359 8.89487 -17.6336 -0.740066 -81.6503 -22.5965 -1.28169 1.9269 -97.2312 -42.4986 65.3779 -38.9151 5.75748 24.3479 6.50146 -0.427242 -69.1267 32.1614 2.67098 4.47673 14.6804 -3.3408 3.63746 0.848432 -4.23592 -0.917909 
-0.348966 92.2083 -72.9939 75.474 -52.4617 78.5818 -174.642 32.0709 88.6111 -37.9918 8.1446 -0.29544 67.3361 13.8876 14.1237 47.8089 23.1328 8.03872 177.702 -3.14102 86.3063 -33.1972 -4.70738 -6.39712 51.9604 1.70685 1.4986 44.9663 2.20835 15.7269 1.29451 7.57534 -89.8744 11.7262 2.63376 -0.0269866 0.0578622 2.63 -0.142972 -22.4974 2.52002 0.766324 -2.48472 2.52001 0.766317 82.1629 -47.6887 -113.545 18.5375 -20.2359 4.32531 -21.4698 1.03105 -86.4445 -22.1053 -1.99127 5.97677 -96.3867 -41.633 66.3927 -41.547 4.31813 28.7954 4.94298 0.219509 -60.7748 32.5254 2.23794 3.04405 15.1754 -2.82073 4.03773 0.691988 -3.86065 -1.16027 
-6.8571 92.3019 -77.2051 73.1428 -54.697 76.2949 -174.05 36.5302 90.3694 -36.3201 6.64113 -0.778381 68.3166 12.9288 11.5821 47.1488 22.6925 9.35971 177.021 -4.54649 86.2296 -25.0121 -4.89815 -5.04035 56.3822 -0.132014 0.0889656 58.3959 4.23352 12.0525 1.37199 7.60637 -89.7841 11.6626 2.83033 0.134674 -0.00528624 2.83351 0.00987376 -22.563 2.65892 0.979691 -2.55032 2.6589 0.979675 82.3886 -47.3569 -113.326 17.2661 -19.3607 -1.09544 -22.7758 1.83847 -86.7738 -22.9185 -2.04114 5.95847 -97.1564 -41.4755 65.1028 -42.5954 4.70211 30.0577 4.1807 2.01196 -51.1819 32.049 2.25388 3.1969 16.6483 -2.00716 4.8181 0.690388 -3.35203 -1.42542 
-13.5582 92.3688 -81.3077 75.6131 -55.3376 76.2978 -172.598 36.7277 90.3358 -31.7573 4.62437 -1.76048 68.715 12.8624 10.2911 47.3306 22.7471 8.75339 176.463 -3.34483 86.199 -25.2872 -4.90356 -5.09119 65.9362 -3.0869 -1.70834 59.5301 2.89253 4.68632 1.12758 7.92693 -89.5911 11.0153 2.43417 0.580499 -0.653483 2.45737 0.472738 -23.2026 2.14712 1.28551 -3.18994 2.14714 1.28552 81.5287 -47.8386 -114.455 15.6746 -17.485 -4.61187 -21.7483 2.67974 -88.3149 -21.5338 -1.19132 1.77905 -98.2662 -42.3902 63.7033 -42.4657 7.29558 28.7181 0.97924 2.17451 -40.6897 29.5856 1.8877 2.53073 16.5384 -1.31645 4.98384 2.1681 -2.72437 -1.06568 
-19.1392 92.6942 -85.1786 79.752 -55.074 78.4168 -172.007 34.6877 90.4027 -25.7022 5.19341 -2.37377 65.7611 10.5025 11.2258 49.6325 25.632 8.82817 175.794 -2.62513 86.6377 -25.6057 -1.45474 -4.30096 73.1256 -5.45451 -2.67686 54.7474 2.73718 6.8908 0.902676 8.19797 -89.5521 10.4726 2.00365 0.71286 -1.19698 2.0331 0.623944 -23.7402 1.69678 1.2822 -3.72749 1.69678 1.28219 80.3789 -48.931 -115.757 14.6817 -15.8455 -4.12111 -20.4911 2.53384 -86.8499 -24.1151 -1.26729 1.48331 -99.7075 -43.0004 61.6996 -42.1038 9.61628 25.8 0.940616 7.95962 -31.0894 24.908 1.72026 3.05044 14.7689 -1.04564 4.70701 3.08529 -2.26125 0.0710131 
-23.6201 93.0363 -88.3329 80.6713 -54.8116 79.7315 -171.68 35.0196 91.8986 -25.8995 5.82457 -2.87768 63.387 6.78112 10.6196 49.3518 25.2335 8.67934 176.982 -0.772435 89.2278 -24.1128 6.09408 -3.18515 78.1928 -7.86858 -3.52694 47.2518 2.03759 8.84855 0.777075 8.16643 -89.6805 10.5375 1.69454 0.483352 -1.1324 1.71418 0.408274 -23.6738 1.47093 0.970374 -3.66116 1.47094 0.970368 79.6745 -49.801 -116.453 14.4531 -14.9689 -1.90593 -18.8454 0.935288 -84.3183 -25.1392 -1.61701 2.87798 -99.4907 -42.9287 62.0077 -41.2401 8.3044 24.7584 1.8607 9.39717 -27.6749 15.6125 0.909272 1.96015 12.9015 -1.11449 4.263 3.12853 -2.13119 0.25253 
-27.3527 93.9143 -91.0948 83.3962 -53.6919 81.7569 -171.728 32.1512 91.6441 -27.4337 8.14525 -2.58067 60.5314 4.85376 10.7667 48.3561 23.3914 6.65565 176.898 0.495364 90.1761 -24.5847 7.49703 -2.28891 78.4926 -7.23021 -3.22656 43.0711 1.4074 8.37185 0.587403 8.22086 -89.746 10.4301 1.2866 0.391133 -1.24022 1.30255 0.334108 -23.7789 1.10954 0.759755 -3.76629 1.10956 0.759755 79.169 -51.4344 -116.537 14.0174 -14.658 1.57431 -16.9693 0.207807 -81.5707 -22.7632 -1.58111 3.40277 -99.0867 -42.6288 62.513 -40.1022 6.2792 24.958 2.3182 5.71804 -28.9378 8.60202 0.338626 0.039195 11.462 -1.34054 3.66926 3.62668 -2.12702 0.785224 
-30.2835 94.8204 -93.5922 84.8969 -53.1327 83.7446 -171.729 29.3991 92.0808 -31.9916 8.55116 -2.11265 58.6067 3.32075 10.6932 51.1863 25.437 2.68792 176.928 2.44281 90.7692 -25.2487 7.03168 -1.248 76.6378 -6.01774 -2.79843 41.1407 1.24304 10.4998 0.527889 8.15439 -89.9063 10.565 1.09453 0.0879631 -1.10545 1.09733 0.0396971 -23.6439 1.01749 0.412894 -3.63124 1.01748 0.412881 78.5935 -52.3524 -116.998 14.4689 -14.2202 6.00951 -17.5575 -1.74056 -77.4738 -22.1184 -1.51439 3.33236 -98.997 -42.1875 62.4719 -38.5756 5.41918 24.3173 2.21297 2.79917 -30.8977 3.97002 0.0706639 -1.46124 9.75171 -1.98715 2.59939 4.29958 -2.40591 1.63518 
